HIERARCHY
ROOT Hips
{
	OFFSET 50.341099 -9.139986 100.635002
	CHANNELS 6 Xposition Yposition Zposition Xrotation Yrotation Zrotation
	JOINT spine
	{
		OFFSET 0.000000 -0.507026 8.817039
		CHANNELS 3 Xrotation Yrotation Zrotation
		JOINT spine1
		{
			OFFSET 0.000000 -0.000002 10.776596
			CHANNELS 3 Xrotation Yrotation Zrotation
			JOINT spine2
			{
				OFFSET 0.000000 -0.000001 10.325897
				CHANNELS 3 Xrotation Yrotation Zrotation
				JOINT Neck
				{
					OFFSET 0.000000 -1.263955 26.511002
					CHANNELS 3 Xrotation Yrotation Zrotation
					JOINT Head
					{
						OFFSET 0.000000 -0.000001 8.009659
						CHANNELS 3 Xrotation Yrotation Zrotation
						End Site
						{
							OFFSET 0.000000 6.393857 19.387894
						}
					}
				}
				JOINT RightShoulder
				{
					OFFSET -4.347950 0.605420 11.151199
					CHANNELS 3 Xrotation Yrotation Zrotation
					JOINT RightArm
					{
						OFFSET 0.000000 -0.000003 14.625793
						CHANNELS 3 Xrotation Yrotation Zrotation
						JOINT RightArmRoll
						{
							OFFSET 0.000000 -0.000001 7.383408
							CHANNELS 3 Xrotation Yrotation Zrotation
							JOINT RightForeArm
							{
								OFFSET 0.000000 -0.000004 21.505203
								CHANNELS 3 Xrotation Yrotation Zrotation
								JOINT RightForeArmRoll
								{
									OFFSET 0.000000 -0.000001 8.285324
									CHANNELS 3 Xrotation Yrotation Zrotation
									JOINT RightHand
									{
										OFFSET 0.000000 -0.000003 16.626801
										CHANNELS 3 Xrotation Yrotation Zrotation
										End Site
										{
											OFFSET 0.000000 0.000000 0.100006
										}
									}
								}
							}
						}
					}
				}
				JOINT LeftShoulder
				{
					OFFSET 4.347950 0.605420 11.151199
					CHANNELS 3 Xrotation Yrotation Zrotation
					JOINT LeftArm
					{
						OFFSET 0.000000 -0.000003 14.625793
						CHANNELS 3 Xrotation Yrotation Zrotation
						JOINT LeftArmRoll
						{
							OFFSET 0.000000 -0.000001 7.383408
							CHANNELS 3 Xrotation Yrotation Zrotation
							JOINT LeftForeArm
							{
								OFFSET 0.000000 -0.000004 21.505203
								CHANNELS 3 Xrotation Yrotation Zrotation
								JOINT LeftForeArmRoll
								{
									OFFSET 0.000000 -0.000001 8.285324
									CHANNELS 3 Xrotation Yrotation Zrotation
									JOINT LeftHand
									{
										OFFSET 0.000000 -0.000003 16.626801
										CHANNELS 3 Xrotation Yrotation Zrotation
										End Site
										{
											OFFSET 0.000000 0.000000 0.100006
										}
									}
								}
							}
						}
					}
				}
			}
		}
	}
	JOINT RightUpLeg
	{
		OFFSET -7.815102 1.202170 -1.433090
		CHANNELS 3 Xrotation Yrotation Zrotation
		JOINT RightUpLegRoll
		{
			OFFSET 0.000000 -0.000003 19.495903
			CHANNELS 3 Xrotation Yrotation Zrotation
			JOINT RightLeg
			{
				OFFSET 0.000000 0.000004 -24.142700
				CHANNELS 3 Xrotation Yrotation Zrotation
				JOINT RightLegRoll
				{
					OFFSET 0.000000 -0.000004 24.221703
					CHANNELS 3 Xrotation Yrotation Zrotation
					JOINT RightFoot
					{
						OFFSET 0.000000 -0.000003 20.160500
						CHANNELS 3 Xrotation Yrotation Zrotation
						JOINT RightToeBase
						{
							OFFSET 0.000000 -0.000003 16.853195
							CHANNELS 3 Xrotation Yrotation Zrotation
							End Site
							{
								OFFSET 0.007145 0.940780 8.161865
							}
						}
					}
				}
			}
		}
	}
	JOINT LeftUpLeg
	{
		OFFSET 7.815102 1.202170 -1.433090
		CHANNELS 3 Xrotation Yrotation Zrotation
		JOINT LeftUpLegRoll
		{
			OFFSET 0.000000 -0.000003 19.496002
			CHANNELS 3 Xrotation Yrotation Zrotation
			JOINT LeftLeg
			{
				OFFSET 0.000000 -0.000004 24.142601
				CHANNELS 3 Xrotation Yrotation Zrotation
				JOINT LeftLegRoll
				{
					OFFSET 0.000000 -0.000004 24.445602
					CHANNELS 3 Xrotation Yrotation Zrotation
					JOINT LeftFoot
					{
						OFFSET 0.000000 -0.000003 19.936600
						CHANNELS 3 Xrotation Yrotation Zrotation
						JOINT LeftToeBase
						{
							OFFSET 0.000000 -0.000003 16.853195
							CHANNELS 3 Xrotation Yrotation Zrotation
							End Site
							{
								OFFSET -0.032013 0.940779 8.161865
							}
						}
					}
				}
			}
		}
	}
}
MOTION
Frames: 5
Frame Time: 0.041667
49.267006 -7.031452 100.315987 2.498701 -0.145142 7.915442 -1.917407 0.114278 0.324356 0.167409 0.220806 0.651400 1.812434 0.228590 0.648706 19.373514 27.619516 -6.762483 2.332196 -22.735077 -2.717377 2.910463 -29.787811 8.326433 288.275893 -150.481375 280.973874 -0.000001 -0.000003 0.000000 59.007507 -5.867723 1.979495 0.000008 0.000006 -3.000001 -5.000212 -7.998823 0.000161 -33.258711 62.798317 38.932625 267.568016 118.241913 -221.486547 -0.000001 -0.000002 0.000000 104.852058 -12.478875 22.968825 -0.000000 -0.000004 3.000621 -5.000214 7.998775 -0.000180 -6.773789 -179.480651 -1.545655 -179.999991 0.000005 -0.961002 171.070967 -1.486770 -0.625549 -0.000004 0.000004 0.064592 68.538045 7.052077 1.751488 26.047884 -7.348245 0.073725 -11.039724 175.520111 1.318229 -0.000004 -0.000004 -0.983861 -14.574918 3.354256 0.933694 -0.000002 -0.000001 -0.200110 69.957325 -6.866145 -2.129835 25.456885 7.356198 0.000006 
49.288509 -7.049412 100.321991 2.503940 -0.151846 7.638309 -1.946025 0.107864 0.312532 0.110217 0.208123 0.627641 1.755243 0.215624 0.625099 19.349038 27.178178 -6.531567 2.229195 -22.244195 -2.593398 2.907155 -30.202314 8.235085 288.681278 -150.207649 280.665068 0.000000 -0.000001 0.000003 59.586645 -5.798289 1.984586 0.000004 0.000006 -3.000003 -5.000214 -7.998821 0.000160 -33.007661 62.636421 38.657611 267.651754 118.391699 -221.899391 -0.000001 -0.000001 0.000000 104.753109 -12.386118 22.770690 -0.000001 -0.000007 3.000618 -5.000207 7.998776 -0.000179 -6.831735 -179.465830 -1.548175 -179.999991 0.000005 -0.960005 171.018866 -1.474710 -0.629032 -0.000004 0.000003 0.063167 68.517364 7.041006 1.781502 26.066367 -7.348235 0.076179 -10.964395 175.525835 1.294377 -0.000005 -0.000005 -0.984951 -14.559115 3.381991 0.935871 -0.000002 -0.000001 -0.200157 69.978894 -6.865989 -2.129072 25.456892 7.356217 0.000007 
49.322105 -7.014533 100.313995 2.507731 -0.159483 7.358223 -1.974053 0.101752 0.301208 0.054213 0.196050 0.604880 1.699251 0.203279 0.602487 19.330661 26.725116 -6.303198 2.126095 -21.745719 -2.470814 2.900881 -30.622689 8.140053 289.081118 -149.924811 280.342492 -0.000003 -0.000001 -0.000003 60.161993 -5.718892 1.985799 0.000006 0.000006 -3.000001 -5.000209 -7.998824 0.000157 -32.752441 62.475180 38.377119 267.726094 118.544435 -222.310240 -0.000001 -0.000003 0.000001 104.649529 -12.292315 22.569064 0.000002 -0.000007 3.000609 -5.000209 7.998775 -0.000180 -6.885933 -179.449997 -1.548800 -179.999991 0.000005 -0.958995 170.973172 -1.464649 -0.631644 -0.000004 0.000004 0.061697 68.493615 7.030535 1.810118 26.083939 -7.348237 0.078545 -10.885029 175.533498 1.271841 -0.000004 -0.000004 -0.986071 -14.539895 3.408948 0.937678 -0.000002 -0.000001 -0.200182 70.000676 -6.865792 -2.128191 25.456894 7.356232 -0.000001 
49.369205 -7.039820 100.313995 2.509652 -0.168164 7.075120 -2.001393 0.095997 0.290454 -0.000416 0.184688 0.583268 1.644619 0.191660 0.581013 19.319016 26.259904 -6.077780 2.023254 -21.239534 -2.349843 2.891729 -31.049442 8.041559 289.474045 -149.631877 280.004397 -0.000002 -0.000003 0.000001 60.733311 -5.629053 1.982973 0.000006 0.000008 -2.999998 -5.000212 -7.998818 0.000164 -32.492699 62.314691 38.090650 267.789970 118.700423 -222.718071 -0.000001 -0.000000 0.000002 104.541065 -12.197601 22.364971 0.000001 -0.000007 3.000595 -5.000211 7.998771 -0.000179 -6.935677 -179.432184 -1.547270 -179.999991 0.000005 -0.957998 170.934732 -1.456587 -0.634371 -0.000004 0.000003 0.060188 68.466301 7.020770 1.837294 26.100511 -7.348234 0.080821 -10.800821 175.543047 1.250778 -0.000004 -0.000005 -0.987227 -14.517255 3.435044 0.939095 -0.000002 -0.000001 -0.200184 70.022642 -6.865553 -2.127389 25.456894 7.356248 -0.000000 
49.398209 -7.068613 100.321991 2.509774 -0.178414 6.787900 -2.028090 0.090629 0.280355 -0.053773 0.174099 0.562972 1.591268 0.180828 0.560844 19.311603 25.784966 -5.852823 1.922667 -20.726619 -2.228363 2.879418 -31.480861 7.938484 289.862874 -149.329696 279.656959 -0.000002 -0.000001 0.000002 61.300627 -5.532622 1.975714 0.000008 0.000008 -3.000000 -5.000205 -7.998826 0.000160 -32.231820 62.154790 37.802375 267.844912 118.858720 -223.121557 -0.000001 -0.000001 0.000001 104.428941 -12.101633 22.156522 0.000000 -0.000005 3.000590 -5.000209 7.998775 -0.000182 -6.981743 -179.412390 -1.543237 -179.999991 0.000005 -0.956999 170.902261 -1.451518 -0.636401 -0.000004 0.000004 0.058630 68.435429 7.011412 1.863668 26.117385 -7.348238 0.082619 -10.710755 175.555478 1.231206 -0.000005 -0.000004 -0.988417 -14.489596 3.460418 0.940046 -0.000002 -0.000001 -0.200167 70.044724 -6.865302 -2.126580 25.456697 7.356265 0.000335 
